<svg xmlns="http://www.w3.org/2000/svg" version="1.1" xmlns:xlink="http://www.w3.org/1999/xlink" xmlns:svgjs="http://svgjs.com/svgjs" width="48" height="48"><svg version="1.1" xmlns="http://www.w3.org/2000/svg" xmlns:xlink="http://www.w3.org/1999/xlink" x="0px" y="0px" viewBox="0 0 48 48" enable-background="new 0 0 48 48" xml:space="preserve">
<path fill="#CFD8DC" d="M42,42H6V7c0-0.6,0.4-1,1-1h34c0.6,0,1,0.4,1,1V42z"></path>
<rect x="8" y="13" fill="#263238" width="32" height="27"></rect>
<g>
	<path fill="#76FF03" d="M15.5,26.4l3.5,2.1V31l-6-3.7v-2.1l6-3.2v2.5L15.5,26.4z"></path>
	<path fill="#76FF03" d="M23,33h-2l4-14h2L23,33z"></path>
	<path fill="#76FF03" d="M32.5,26.5l-3.5-2V22l6,3.4v2.1L29,31v-2.5L32.5,26.5z"></path>
</g>
<g>
	<circle fill="#90A4AE" cx="13.5" cy="9.5" r="1.5"></circle>
	<circle fill="#90A4AE" cx="9.5" cy="9.5" r="1.5"></circle>
</g>
</svg><style>@media (prefers-color-scheme: light) { :root { filter: none; } }
</style></svg>